<svg width="141" height="141" viewBox="0 0 141 141" fill="none" xmlns="http://www.w3.org/2000/svg">
<g filter="url(#filter0_f)">
<path d="M138.5 115.5C138.5 122.439 80.8703 139 70 139C59.1297 139 2 121.916 2 114L138.5 115.5Z" fill="#682700"/>
</g>
<path d="M140 113.483C140 121.832 81.8683 138 70.9749 138C60.0815 138 2 122.126 2 112.601C2 103.077 2.09603 -48 2.09603 -48H139.889C139.889 -48 140 105.194 140 113.483Z" fill="#EB2316"/>
<path d="M19.8714 109.96C19.8554 109.992 19.8394 110.04 19.8394 110.072C19.8394 110.152 19.9034 110.232 19.9674 110.296C20.1754 110.52 20.9434 111.24 22.5274 111.24C23.6314 111.24 24.5594 110.904 25.2954 109.944C26.2074 108.76 26.3834 107.048 26.3834 105.544C26.3834 102.36 25.4554 99.768 22.7194 99.768C21.6474 99.768 20.8794 100.104 20.1594 100.728C19.9994 100.856 19.9514 100.952 19.9514 101.032C19.9514 101.08 19.9834 101.144 20.0154 101.192L20.5274 101.912C20.5754 101.992 20.6234 102.04 20.6874 102.04C20.7194 102.04 20.7514 102.024 20.7994 101.992L20.9914 101.848C21.3914 101.528 21.8554 101.176 22.5434 101.176C24.1754 101.176 24.5274 103.112 24.5274 104.424V104.584H21.6474C21.4874 104.584 21.3754 104.632 21.3754 104.856V105.768C21.3754 105.976 21.4554 106.024 21.6314 106.024H24.5274V106.232C24.5274 107.048 24.4314 109.832 22.3994 109.832C21.8074 109.832 21.4074 109.624 20.8794 109.24L20.7034 109.112C20.6554 109.064 20.5914 109.048 20.5434 109.048C20.4794 109.048 20.4314 109.08 20.3674 109.176L19.8714 109.96ZM30.1955 111C30.3715 111 30.4515 110.92 30.4515 110.744V106.008H31.2515C32.0035 106.008 32.4035 106.248 32.6595 107.4L33.0275 109.112C33.3635 110.68 34.0195 111.24 35.4435 111.24C35.6515 111.24 35.6995 111.208 35.7475 111.048L36.0835 110.04C36.0995 110.008 36.0995 109.976 36.0995 109.944C36.0995 109.784 35.9075 109.768 35.8595 109.752L35.5555 109.704C35.2035 109.64 34.8995 109.736 34.6275 108.568L34.2435 106.952C34.0515 106.232 33.5235 105.496 32.8675 105.272C33.6675 104.936 33.9395 104.216 34.0835 103.544L34.3075 102.536C34.4355 101.928 34.5635 101.384 35.1875 101.272L35.5075 101.208C35.6355 101.176 35.7155 101.112 35.7155 101C35.7155 100.968 35.7155 100.936 35.6995 100.904L35.4275 99.976C35.3795 99.816 35.2515 99.784 35.1395 99.784C34.7875 99.784 34.0195 99.976 33.5555 100.44C33.1235 100.872 32.9955 101.448 32.8675 102.024L32.5955 103.288C32.4515 104.008 32.0515 104.568 31.2675 104.568H30.4515V100.232C30.4515 100.104 30.3715 100.024 30.2595 100.024H28.8675C28.7875 100.024 28.7075 100.088 28.7075 100.2V110.744C28.7075 110.952 28.7875 111 28.9635 111H30.1955ZM43.5289 109.88L43.0489 109.112C43.0009 109.032 42.9369 109.016 42.8889 109.016C42.8089 109.016 42.7449 109.064 42.6649 109.128C42.1209 109.544 41.6409 109.752 41.1289 109.752C39.6729 109.752 38.9689 108.248 38.9689 105.144C38.9689 102.456 39.5929 101.24 40.9369 101.24C41.6249 101.24 42.1049 101.608 42.6169 102.008C42.6649 102.056 42.7449 102.088 42.8089 102.088C42.8569 102.088 42.9209 102.072 42.9529 102.008L43.4649 101.192C43.5129 101.112 43.5449 101.048 43.5449 100.984C43.5449 100.904 43.4969 100.824 43.3849 100.728C42.6969 100.136 41.7689 99.768 40.8729 99.768C37.8169 99.768 37.0969 102.92 37.0969 105.384C37.0969 109.192 38.4409 111.24 40.9689 111.24C41.8489 111.24 42.5529 111.048 43.4329 110.344C43.5609 110.232 43.6089 110.168 43.6089 110.088C43.6089 110.024 43.5769 109.96 43.5289 109.88ZM46.8361 111C47.0121 111 47.0921 110.92 47.0921 110.744V106.008H47.8921C48.6441 106.008 49.0441 106.248 49.3001 107.4L49.6681 109.112C50.0041 110.68 50.6601 111.24 52.0841 111.24C52.2921 111.24 52.3401 111.208 52.3881 111.048L52.7241 110.04C52.7401 110.008 52.7401 109.976 52.7401 109.944C52.7401 109.784 52.5481 109.768 52.5001 109.752L52.1961 109.704C51.8441 109.64 51.5401 109.736 51.2681 108.568L50.8841 106.952C50.6921 106.232 50.1641 105.496 49.5081 105.272C50.3081 104.936 50.5801 104.216 50.7241 103.544L50.9481 102.536C51.0761 101.928 51.2041 101.384 51.8281 101.272L52.1481 101.208C52.2761 101.176 52.3561 101.112 52.3561 101C52.3561 100.968 52.3561 100.936 52.3401 100.904L52.0681 99.976C52.0201 99.816 51.8921 99.784 51.7801 99.784C51.4281 99.784 50.6601 99.976 50.1961 100.44C49.7641 100.872 49.6361 101.448 49.5081 102.024L49.2361 103.288C49.0921 104.008 48.6921 104.568 47.9081 104.568H47.0921V100.232C47.0921 100.104 47.0121 100.024 46.9001 100.024H45.5081C45.4281 100.024 45.3481 100.088 45.3481 100.2V110.744C45.3481 110.952 45.4281 111 45.6041 111H46.8361ZM61.285 100.28C61.285 100.072 61.205 100.024 61.029 100.024H55.749C55.589 100.024 55.509 100.072 55.509 100.264V101.928C55.509 104.44 55.589 108.248 54.581 109.224C54.229 109.56 53.781 109.672 53.493 109.704L53.253 109.736C53.125 109.752 53.029 109.832 53.029 109.976C53.029 110.008 53.045 110.04 53.045 110.072L53.285 111.016C53.317 111.16 53.365 111.24 53.605 111.24C56.069 111.24 56.661 108.472 56.837 106.952C56.981 105.608 57.029 104.168 57.045 103.016L57.061 101.464H59.525V110.744C59.525 110.952 59.605 111 59.781 111H61.029C61.205 111 61.285 110.92 61.285 110.744V100.28ZM66.0456 104.6V100.28C66.0456 100.04 65.9336 100.024 65.7736 100.024H64.5736C64.3976 100.024 64.2856 100.04 64.2856 100.28V110.76C64.2856 110.968 64.3976 111 64.5576 111H65.8216C66.0296 111 66.0456 110.856 66.0456 110.728V106.04H67.6456C67.6936 108.264 68.5256 111.24 71.4536 111.24C74.8936 111.24 75.1976 107.064 75.1976 105.528C75.1976 104.168 74.9896 99.768 71.4536 99.768C68.2856 99.768 67.7416 103.192 67.6616 104.6H66.0456ZM71.3896 109.832C70.9096 109.832 70.5416 109.688 70.2376 109.368C69.8056 108.92 69.4376 107.944 69.4376 105.496C69.4376 103.016 69.8696 102.04 70.3016 101.608C70.4776 101.432 70.8296 101.176 71.3896 101.176C71.8376 101.176 72.1896 101.336 72.4616 101.608C72.8936 102.04 73.3256 103 73.3256 105.512C73.3256 108.36 72.7656 109.144 72.4616 109.432C72.0936 109.784 71.6456 109.832 71.3896 109.832ZM78.384 105.8C78.384 106.008 78.464 106.056 78.64 106.056H79.248C80.144 106.056 81.216 106.488 81.216 107.864C81.216 108.552 81.04 109.8 79.28 109.8C78.48 109.8 77.888 109.432 77.424 109.112L77.264 109C77.184 108.936 77.104 108.92 77.056 108.92C76.992 108.92 76.96 108.936 76.928 108.984L76.432 109.848C76.4 109.896 76.4 109.928 76.4 109.976C76.4 110.28 77.056 110.68 77.488 110.872C78.144 111.176 78.816 111.24 79.52 111.24C80.352 111.24 81.36 111.128 82.176 110.28C82.896 109.528 83.024 108.616 83.024 107.912C83.024 106.984 82.688 105.72 81.088 105.192C82.384 104.76 82.704 103.624 82.704 102.728C82.704 101.736 82.304 99.768 79.6 99.768C78.368 99.768 77.408 100.216 76.8 100.856C76.704 100.952 76.656 101.032 76.656 101.112C76.656 101.176 76.688 101.224 76.736 101.304L77.184 101.944C77.232 102.008 77.296 102.04 77.376 102.04C77.44 102.04 77.504 102.024 77.552 101.976L77.728 101.832C78.224 101.432 78.688 101.208 79.312 101.208C80.416 101.208 80.976 102.056 80.976 102.92C80.976 103.32 80.896 103.8 80.512 104.184C80.064 104.616 79.472 104.648 79.088 104.648H78.64C78.464 104.648 78.384 104.728 78.384 104.904V105.8ZM92.7684 100.28C92.7684 100.104 92.7204 100.024 92.5124 100.024H91.0884C91.0404 100.024 90.9124 100.04 90.8324 100.2L87.9364 106.312C87.7284 106.744 87.3284 107.832 87.2004 108.152H87.1524C87.2324 107.032 87.2644 106.68 87.2644 106.312V100.28C87.2644 100.104 87.2164 100.024 87.0084 100.024H85.7604C85.5524 100.024 85.5044 100.104 85.5044 100.28V110.744C85.5044 110.92 85.5844 111 85.7604 111H87.0404C87.2484 111 87.2804 110.92 87.3444 110.776L90.4164 104.376C90.7044 103.784 90.8964 103.336 91.0724 102.696H91.1204C91.0564 103.192 91.0084 103.752 91.0084 104.296V110.744C91.0084 110.952 91.0884 111 91.2644 111H92.5124C92.6884 111 92.7684 110.952 92.7684 110.744V100.28ZM102.506 107.928C102.506 106.6 101.866 105.624 100.522 105.256C101.594 104.744 102.106 103.944 102.106 102.744C102.106 101.944 101.802 101.176 101.306 100.696C100.762 100.168 100.186 100.024 98.65 100.024H96.026C95.786 100.024 95.77 100.056 95.77 100.296V110.728C95.77 110.968 95.786 111 96.026 111H98.554C99.61 111 99.85 110.984 100.394 110.856C101.658 110.584 102.506 109.384 102.506 107.928ZM100.314 102.936C100.314 104.136 99.722 104.728 98.49 104.728H97.45V101.352H98.618C99.818 101.352 100.314 101.816 100.314 102.936ZM100.698 107.848C100.698 109.064 100.058 109.592 98.618 109.592H97.45V106.072H98.586C100.042 106.072 100.698 106.648 100.698 107.848ZM111.982 110.728V100.296C111.982 100.056 111.934 100.024 111.694 100.024H110.494C110.254 100.024 110.222 100.056 110.222 100.296V104.616H106.702V100.296C106.702 100.056 106.638 100.024 106.414 100.024H105.198C104.958 100.024 104.942 100.056 104.942 100.296V110.728C104.942 110.968 104.958 111 105.198 111H106.414C106.638 111 106.702 110.968 106.702 110.728V105.976H110.222V110.728C110.222 110.968 110.254 111 110.494 111H111.694C111.934 111 111.982 110.968 111.982 110.728ZM121.837 105.432C121.837 101.672 120.589 99.768 118.109 99.768C115.309 99.768 114.269 102.232 114.269 105.448C114.269 109.32 115.517 111.24 117.997 111.24C120.525 111.24 121.837 109.272 121.837 105.432ZM119.965 105.496C119.965 108.488 119.373 109.832 118.045 109.832C116.653 109.832 116.141 108.232 116.141 105.48C116.141 102.536 116.749 101.176 118.077 101.176C119.405 101.176 119.965 102.744 119.965 105.496Z" fill="white"/>
<path fill-rule="evenodd" clip-rule="evenodd" d="M72 7C50.2121 7 32.5 24.7121 32.5 46.5C32.5 68.2879 50.2121 86 72 86C93.7711 86 111.5 68.2879 111.5 46.5C111.5 24.7121 93.7711 7 72 7Z" fill="white"/>
<path fill-rule="evenodd" clip-rule="evenodd" d="M91.9253 18.1708C88.9062 25.903 82.0461 27.5132 72.1166 27.5132C71.0431 27.5132 69.9864 27.4965 68.98 27.4797C67.9904 27.4629 67.0679 27.4461 66.1454 27.4461C65.3403 27.4461 64.5185 27.4629 63.7134 27.4965C65.1055 24.0748 67.3363 21.7602 70.4896 20.3512C74.9008 18.3888 80.6372 18.3721 85.6858 18.3553C87.8662 18.3385 89.9796 18.3217 91.9253 18.1708Z" fill="#008F32"/>
<path fill-rule="evenodd" clip-rule="evenodd" d="M95.0125 20.6532C90.5509 30.3647 80.6214 31.3375 72.1008 31.3375C70.239 31.3375 68.4443 31.2872 66.7838 31.2872L64.6369 39.6736C75.6231 30.7169 90.1483 39.5897 88.6052 53.1086C87.5653 62.2163 81.0742 68.1706 74.1974 69.8815C66.7167 71.7432 58.4309 68.959 54.7241 61.3273C54.3384 60.5222 53.6507 58.912 53.3823 58.0398L61.2655 56.0103C61.3997 56.4632 61.6345 56.8993 61.8861 57.3018C67.1696 65.8224 77.8706 61.5621 79.0783 52.7229C80.3027 43.7326 67.7063 38.9524 61.9532 49.4522L54.959 46.4666L54.8415 46.4163L58.2129 32.8806C58.4142 31.9246 59.1186 29.2241 59.236 28.788C63.0435 14.766 75.3883 14.5479 85.2674 14.5144C81.1749 12.8203 76.6965 11.8643 71.9834 11.8643C52.8624 11.8643 37.3643 27.3624 37.3643 46.4834C37.3643 65.6044 52.8624 81.1025 71.9834 81.1025C91.1044 81.1025 106.602 65.6044 106.602 46.4834C106.602 36.2184 102.124 26.9933 95.0125 20.6532Z" fill="#EB2316"/>
<defs>
<filter id="filter0_f" x="0" y="112" width="140.5" height="29" filterUnits="userSpaceOnUse" color-interpolation-filters="sRGB">
<feFlood flood-opacity="0" result="BackgroundImageFix"/>
<feBlend mode="normal" in="SourceGraphic" in2="BackgroundImageFix" result="shape"/>
<feGaussianBlur stdDeviation="1" result="effect1_foregroundBlur"/>
</filter>
</defs>
</svg>
